<svg id="SvgjsSvg1001" width="288" height="288" xmlns="http://www.w3.org/2000/svg" version="1.1" xmlns:xlink="http://www.w3.org/1999/xlink" xmlns:svgjs="http://svgjs.com/svgjs"><defs id="SvgjsDefs1002"></defs><g id="SvgjsG1008"><svg xmlns="http://www.w3.org/2000/svg" data-name="Layer 1" viewBox="0 0 64 64" width="288" height="288"><path fill="#1ad298" d="M55.75 29.79l-4-16.47a1.29 1.29 0 00-1.56-.95L18.52 20.07a1.29 1.29 0 00-.95 1.56l.73 3-4.53 1.1-3.15-1.67a2 2 0 00-2.91 2.27l2.95 12.1a2 2 0 003.63.67l2-2.93 4.53-1.1.73 3a1.29 1.29 0 001.56.95l13.11-3.19 4.46-1.09L54.8 31.34A1.29 1.29 0 0055.75 29.79zM48.22 17.73a1.4 1.4 0 111-1.69A1.4 1.4 0 0148.22 17.73zM56.35 42.46v8.37a.84.84 0 01-.84.84h0a5 5 0 01-4.08-2.09h-13a1.29 1.29 0 01-1.29-1.29V37l4.46-1.09v7.83h9.88A4.84 4.84 0 0152 43.1a5 5 0 013.55-1.47h0A.84.84 0 0156.35 42.46z" class="color333 svgShape"></path></svg></g></svg>