<svg id="SvgjsSvg1001" width="288" height="288" xmlns="http://www.w3.org/2000/svg" version="1.1" xmlns:xlink="http://www.w3.org/1999/xlink" xmlns:svgjs="http://svgjs.com/svgjs"><defs id="SvgjsDefs1002"></defs><g id="SvgjsG1008" transform="matrix(1,0,0,1,0,0)"><svg xmlns="http://www.w3.org/2000/svg" data-name="Layer 1" viewBox="0 0 24 24" width="288" height="288"><path d="M2.759,23.65,8,17.536l5.241,6.114A1.009,1.009,0,0,0,15,23V15h7a1,1,0,0,0,1-1V5a5.006,5.006,0,0,0-5-5H6A5.006,5.006,0,0,0,1,5V23A1.01,1.01,0,0,0,2.759,23.65ZM21,5v8H15V5a3,3,0,0,1,6,0ZM3,5A3,3,0,0,1,6,2h8.026A4.948,4.948,0,0,0,13,5V20.3L8.759,15.35a1.031,1.031,0,0,0-1.518,0L3,20.3Z" fill="#52cc99" class="color000 svgShape"></path></svg></g></svg>